<?xml version="1.0" encoding="utf-8"?>
<!-- Generator: Adobe Illustrator 15.0.0, SVG Export Plug-In . SVG Version: 6.00 Build 0)  -->
<!DOCTYPE svg PUBLIC "-//W3C//DTD SVG 1.1//EN" "http://www.w3.org/Graphics/SVG/1.1/DTD/svg11.dtd">
<svg version="1.1" id="Layer_1" xmlns="http://www.w3.org/2000/svg" xmlns:xlink="http://www.w3.org/1999/xlink" x="0px" y="0px"
	 width="48px" height="48px" viewBox="0 0 48 48" enable-background="new 0 0 48 48" xml:space="preserve">
<g>
	<path d="M14.999,43c-0.149,0-0.304-0.034-0.446-0.105C11.407,41.32,7.464,36.072,5.8,32.563c-0.339,0.391-0.718,0.77-1.093,1.145
		c-0.262,0.261-0.643,0.357-0.997,0.25c-0.353-0.107-0.618-0.398-0.69-0.762c-0.729-3.641-1-9.917-0.129-14.672l-1.184,1.184
		c-0.286,0.286-0.716,0.372-1.09,0.217C0.243,19.769,0,19.404,0,19C0,12.496,6.334,0,15,0c3.645,0,8.271,0.857,9.707,2.293
		c0.391,0.391,0.391,1.023,0,1.414s-1.023,0.391-1.414,0C22.598,3.011,19.021,2,15,2C8.684,2,3.656,10.3,2.339,16.247l1.954-1.954
		c0.346-0.348,0.895-0.392,1.292-0.104c0.397,0.287,0.528,0.819,0.31,1.258c-1.576,3.154-1.896,10.141-1.236,15.341
		C4.867,30.494,5.002,30.221,5.002,30c0-0.552,0.447-1,1-1c0.555,0,1,0.448,1,1c0,1.588,4.689,9.229,8.447,11.105
		c0.492,0.246,0.693,0.848,0.445,1.342C15.719,42.798,15.366,43,14.999,43z"/>
	<path d="M33.001,43c-0.367,0-0.72-0.202-0.896-0.553c-0.248-0.494-0.047-1.096,0.447-1.342C36.311,39.229,41,31.588,41,30
		c0-0.552,0.447-1,1-1s1,0.448,1,1c0,0.221,0.135,0.494,0.344,0.788c0.659-5.2,0.34-12.187-1.238-15.341
		c-0.22-0.439-0.088-0.972,0.312-1.258c0.396-0.288,0.944-0.244,1.292,0.104l1.954,1.954C44.344,10.3,39.316,2,33,2
		c-4.021,0-7.598,1.011-8.293,1.707c-0.391,0.391-1.023,0.391-1.414,0s-0.391-1.023,0-1.414C24.729,0.857,29.355,0,33,0
		c8.666,0,15,12.496,15,19c0,0.404-0.243,0.769-0.617,0.924c-0.373,0.155-0.804,0.069-1.09-0.217l-1.184-1.184
		c0.871,4.756,0.6,11.032-0.129,14.673c-0.072,0.36-0.338,0.653-0.69,0.761c-0.354,0.107-0.735,0.011-0.997-0.25
		c-0.375-0.375-0.754-0.754-1.093-1.145c-1.664,3.509-5.604,8.759-8.753,10.332C33.305,42.966,33.15,43,33.001,43z"/>
	<path d="M36,48H12c-0.404,0-0.77-0.244-0.924-0.617c-0.155-0.374-0.069-0.804,0.217-1.09c2.398-2.398,4.195-7.064,4.614-8.775
		c-3.484-2.224-5.444-6.603-5.832-13.035C7.036,21.259,7,17.176,7,17c0-0.552,0.447-1,1-1c0.173,0,1.302,0.018,2.395,0.458
		c1.607-4.895,5.565-8.759,10.393-10.029c0.275-0.074,0.572-0.023,0.813,0.137c0.237,0.16,0.396,0.414,0.436,0.699
		C22.165,8.254,23.012,9,24.002,9s1.837-0.746,1.969-1.735c0.038-0.285,0.196-0.539,0.437-0.699c0.235-0.16,0.532-0.21,0.812-0.137
		c4.825,1.27,8.783,5.134,10.393,10.029C38.704,16.018,39.833,16,40.006,16c0.553,0,1,0.448,1,1c0,0.176-0.035,4.258-3.074,7.481
		c-0.38,6.453-2.34,10.833-5.832,13.041c0.418,1.709,2.215,6.373,4.613,8.771c0.286,0.286,0.372,0.716,0.217,1.09
		C36.77,47.756,36.404,48,36,48z M14.133,46h19.734C31.512,42.7,30,38.135,30,37c0-0.37,0.204-0.709,0.529-0.883
		c3.3-1.756,5.123-5.848,5.422-12.165c0.017-0.35,0.211-0.65,0.494-0.816c1.623-1.709,2.216-3.744,2.432-4.987
		c-0.439,0.106-0.893,0.28-1.17,0.558c-0.257,0.257-0.631,0.355-0.98,0.254c-0.351-0.1-0.617-0.38-0.699-0.734
		c-1.025-4.394-4.34-8.13-8.396-9.578c-0.634,1.395-2.039,2.35-3.63,2.35s-2.996-0.955-3.63-2.35
		c-4.06,1.447-7.37,5.184-8.396,9.578c-0.082,0.354-0.351,0.634-0.699,0.734c-0.35,0.101-0.723,0.003-0.98-0.254
		c-0.275-0.276-0.727-0.45-1.165-0.557c0.224,1.262,0.828,3.333,2.479,5.042c0.25,0.172,0.427,0.446,0.441,0.76
		c0.307,6.297,2.133,10.392,5.426,12.168c0.321,0.174,0.523,0.512,0.523,0.88C18,38.135,16.488,42.7,14.133,46z"/>
	<g>
		<path d="M27,21c-0.396,0-0.771-0.238-0.93-0.629c-0.204-0.513,0.046-1.095,0.559-1.3l5-2c0.508-0.202,1.096,0.044,1.301,0.557
			c0.204,0.513-0.046,1.095-0.559,1.3l-5,2C27.25,20.977,27.124,21,27,21z"/>
		<path d="M27,21c-0.396,0-0.771-0.238-0.93-0.629c-0.204-0.513,0.046-1.095,0.559-1.3l5-2c0.508-0.202,1.096,0.044,1.301,0.557
			c0.204,0.513-0.046,1.095-0.559,1.3l-5,2C27.25,20.977,27.124,21,27,21z"/>
		<path d="M29,23c-1.654,0-3-1.346-3-3c0-0.409,0.249-0.776,0.629-0.928l3.444-1.378c0.378-0.151,0.813-0.058,1.095,0.238
			C31.704,18.495,32,19.229,32,20C32,21.654,30.654,23,29,23z M28.198,20.598C28.381,20.842,28.673,21,29,21c0.552,0,1-0.449,1-1
			c0-0.041-0.003-0.081-0.008-0.12L28.198,20.598z"/>
	</g>
	<g>
		<path d="M21,21c-0.124,0-0.25-0.023-0.371-0.072l-5-2c-0.513-0.206-0.763-0.787-0.559-1.3c0.205-0.513,0.793-0.759,1.301-0.557
			l5,2c0.513,0.206,0.763,0.787,0.559,1.3C21.771,20.762,21.396,21,21,21z"/>
		<path d="M21,21c-0.124,0-0.25-0.023-0.371-0.072l-5-2c-0.513-0.206-0.763-0.787-0.559-1.3c0.205-0.513,0.793-0.759,1.301-0.557
			l5,2c0.513,0.206,0.763,0.787,0.559,1.3C21.771,20.762,21.396,21,21,21z"/>
		<path d="M19,23c-1.654,0-3-1.346-3-3c0-0.771,0.296-1.505,0.832-2.068c0.281-0.295,0.718-0.389,1.095-0.238l3.444,1.378
			C21.751,19.224,22,19.592,22,20C22,21.654,20.654,23,19,23z M18.008,19.88C18.003,19.92,18,19.96,18,20c0,0.551,0.448,1,1,1
			c0.327,0,0.619-0.158,0.802-0.402L18.008,19.88z"/>
	</g>
	<path d="M28,34h-8c-0.432,0-0.813-0.275-0.948-0.684l-2-6c-0.103-0.306-0.051-0.641,0.138-0.901s0.49-0.416,0.813-0.416h12
		c0.321,0,0.623,0.153,0.813,0.416c0.188,0.261,0.238,0.596,0.138,0.901l-2,6C28.813,33.725,28.432,34,28,34z M20.721,32h6.559
		l1.334-4h-9.225L20.721,32z"/>
	<path d="M20.5,38.739c-1.76,0-3.52-0.345-4.207-1.032c-0.391-0.391-0.391-1.023,0-1.414s1.021-0.391,1.411-0.003
		c0.709,0.608,4.888,0.608,5.593-0.001c0.407-0.352,1.043-0.341,1.411,0.052c0.366,0.394,0.38,0.985-0.001,1.366
		C24.02,38.395,22.26,38.739,20.5,38.739z"/>
	<path d="M27.5,38.739c-1.76,0-3.52-0.345-4.207-1.032c-0.391-0.391-0.391-1.023,0-1.414s1.023-0.391,1.414,0
		c0.702,0.605,4.884,0.605,5.59-0.004c0.407-0.352,1.043-0.341,1.411,0.052c0.366,0.394,0.38,0.985-0.001,1.366
		C31.02,38.395,29.26,38.739,27.5,38.739z"/>
	<path d="M21,16c-0.256,0-0.512-0.098-0.707-0.293l-5-5c-0.391-0.391-0.391-1.023,0-1.414s1.023-0.391,1.414,0l5,5
		c0.391,0.391,0.391,1.023,0,1.414C21.512,15.902,21.256,16,21,16z"/>
	<path d="M19,16c-0.256,0-0.512-0.098-0.707-0.293c-0.391-0.391-0.391-1.023,0-1.414l2-2c0.391-0.391,1.023-0.391,1.414,0
		s0.391,1.023,0,1.414l-2,2C19.512,15.902,19.256,16,19,16z"/>
	<path d="M17,14c-0.256,0-0.512-0.098-0.707-0.293c-0.391-0.391-0.391-1.023,0-1.414l2-2c0.391-0.391,1.023-0.391,1.414,0
		s0.391,1.023,0,1.414l-2,2C17.512,13.902,17.256,14,17,14z"/>
</g>
</svg>
