<?xml version="1.0" encoding="utf-8"?>
<!-- Generator: Adobe Illustrator 15.0.0, SVG Export Plug-In . SVG Version: 6.00 Build 0)  -->
<!DOCTYPE svg PUBLIC "-//W3C//DTD SVG 1.1//EN" "http://www.w3.org/Graphics/SVG/1.1/DTD/svg11.dtd">
<svg version="1.1" id="Layer_1" xmlns="http://www.w3.org/2000/svg" xmlns:xlink="http://www.w3.org/1999/xlink" x="0px" y="0px"
	 width="44px" height="48px" viewBox="0 0 44 48" enable-background="new 0 0 44 48" xml:space="preserve">
<g>
	<path d="M16,24c-1.653,0-3-1.346-3-3s1.347-3,3-3c1.654,0,3,1.346,3,3S17.655,24,16,24z M16,20c-0.551,0-1,0.449-1,1s0.449,1,1,1
		c0.553,0,1-0.449,1-1S16.553,20,16,20z"/>
	<path d="M11,24c-0.553,0-1-0.448-1-1v-2c0-1.542,1.459-3,3-3h7c0.554,0,1,0.448,1,1s-0.446,1-1,1h-7c-0.447,0-1,0.551-1,1v2
		C12,23.552,11.554,24,11,24z"/>
	<path d="M28,24c-1.653,0-3-1.346-3-3s1.347-3,3-3c1.654,0,3,1.346,3,3S29.655,24,28,24z M28,20c-0.551,0-1,0.449-1,1s0.449,1,1,1
		c0.553,0,1-0.449,1-1S28.553,20,28,20z"/>
	<path d="M33,24c-0.553,0-1-0.448-1-1v-2c0-0.449-0.551-1-1-1h-7c-0.553,0-1-0.448-1-1s0.447-1,1-1h7c1.543,0,3,1.458,3,3v2
		C34,23.552,33.554,24,33,24z"/>
	<path d="M7.002,14c-0.34,0-0.672-0.173-0.858-0.485c-0.283-0.473-0.131-1.087,0.344-1.372c2.136-1.283,4.515-3.3,4.515-4.143
		c0-0.552,0.447-1,1-1C12.527,7,12.959,7.405,13,7.92c0.205,0.466,1.625,1.617,2.313,2.176c0.232,0.188,0.451,0.366,0.652,0.534
		c1.705-1.673,3.897-3.678,5.59-4.524c0.494-0.247,1.094-0.047,1.342,0.447c0.621,1.241,1.291,2.58,1.475,3.978
		c0.773-0.955,1.537-2.093,1.633-2.567c0-0.018,0.002-0.035,0.004-0.053c0.021-0.533,0.459-0.935,0.998-0.935
		c0.523,0,0.953,0.429,0.994,0.946c0.207,0.466,1.625,1.617,2.313,2.176c0.28,0.228,0.543,0.44,0.776,0.638
		c0.457-0.248,1.021-0.483,1.668-0.752c0.972-0.404,3.244-1.35,3.244-1.981c0-0.552,0.447-1,1-1c0.554,0,1,0.448,1,1
		c0,1.965-2.377,2.955-4.477,3.828c-0.678,0.282-1.605,0.669-1.816,0.879c-0.391,0.391-1.022,0.391-1.414,0
		c-0.268-0.266-0.739-0.651-1.241-1.058c-0.751-0.609-1.386-1.136-1.878-1.617c-1.09,1.81-3.012,3.967-4.174,3.967
		c-0.348,0-0.668-0.18-0.852-0.474c-0.184-0.295-0.197-0.663-0.043-0.973c0.643-1.284,0.189-2.632-0.523-4.139
		c-1.203,0.818-2.838,2.256-4.875,4.293c-0.391,0.391-1.022,0.391-1.414,0c-0.268-0.266-0.739-0.651-1.241-1.058
		c-0.753-0.611-1.39-1.139-1.882-1.623c-1.293,1.717-3.729,3.275-4.653,3.831C7.355,13.954,7.176,14,7.002,14z"/>
	<path d="M22,40c-4.092,0-9.406-1.993-10.707-3.293C11.106,36.52,11,36.266,11,36c0-3.369,0.127-7.486,1.105-9.447
		c0.248-0.494,0.85-0.693,1.342-0.447c1.83,0.916,5.703,1.896,8.553,1.896c2.851,0,6.724-0.979,8.554-1.896
		c0.495-0.246,1.094-0.047,1.342,0.447C32.875,28.514,33,32.631,33,36c0,0.379-0.213,0.725-0.553,0.895
		C30.433,37.902,26.237,40,22,40z M13.002,35.521C14.317,36.398,18.592,38,22,38c3.426,0,6.974-1.62,9-2.619
		c-0.008-1.754-0.067-5.085-0.576-7.036C28.202,29.218,24.801,30,22,30s-6.201-0.782-8.424-1.655
		C13.056,30.35,13.006,33.813,13.002,35.521z"/>
	<path d="M1,24c-0.162,0-0.324-0.039-0.473-0.118C0.204,23.708,0,23.369,0,23v-8c0-0.369,0.203-0.708,0.527-0.882
		c0.324-0.174,0.721-0.155,1.027,0.05L4.301,16H7c0.554,0,1,0.448,1,1s-0.446,1-1,1H4c-0.196,0-0.391-0.059-0.555-0.168L2,16.869
		v4.263l1.445-0.963C3.61,20.06,3.801,20.001,4,20.001h2c0.554,0,1,0.448,1,1s-0.446,1-1,1H4.304l-2.748,1.832
		C1.39,23.943,1.194,24,1,24z"/>
	<path d="M43,24c-0.192,0-0.389-0.056-0.555-0.168L39.698,22H38c-0.553,0-1-0.448-1-1s0.447-1,1-1h2
		c0.197,0,0.392,0.059,0.556,0.168L42,21.131v-4.263l-1.444,0.963C40.392,17.941,40.2,18,40,18h-3c-0.553,0-1-0.448-1-1s0.447-1,1-1
		h2.697l2.748-1.832c0.307-0.205,0.701-0.224,1.025-0.05c0.324,0.174,0.527,0.513,0.527,0.882v8c0,0.369-0.203,0.708-0.527,0.882
		C43.325,23.961,43.163,24,43,24z"/>
	<path d="M22,48c-9.887,0-10-4.796-10-5v-2c0-0.552,0.447-1,1-1c0.554,0,1,0.448,1,1v2c0.002,0,0.289,3,8,3c7.713,0,8-3,8.002-3.03
		L30,41c0-0.552,0.447-1,1-1c0.554,0,1,0.448,1,1v2C32,43.204,31.888,48,22,48z"/>
	<path d="M31.002,45c-0.35,0-0.688-0.182-0.871-0.506c-0.272-0.48-0.104-1.092,0.375-1.364c3.136-1.78,8.367-5.68,8.492-11.901
		C36.481,26.107,36,21.907,36,16V5c0-1.654-1.346-3-3-3H11C9.347,2,8,3.346,8,5v11c0,5.907-0.479,10.107-2.998,15.229
		C5.129,37.45,10.36,41.35,13.495,43.13c0.48,0.272,0.648,0.884,0.375,1.364c-0.271,0.479-0.883,0.646-1.363,0.375
		C8.958,42.852,3,38.366,3,30.999v-0.235l0.105-0.212C5.554,25.66,6,21.813,6,16V5c0-2.757,2.244-5,5-5h22c2.758,0,5,2.243,5,5v11
		c0,5.813,0.447,9.66,2.896,14.553L41,30.764V31c0,7.367-5.955,11.852-9.506,13.87C31.338,44.958,31.168,45,31.002,45z"/>
	<path d="M28,32c-0.553,0-1-0.448-1-1v-2c0-0.552,0.447-1,1-1c0.554,0,1,0.448,1,1v2C29,31.552,28.554,32,28,32z"/>
	<path d="M24,39c-0.553,0-1-0.448-1-1v-3c0-0.552,0.447-1,1-1c0.554,0,1,0.448,1,1v3C25,38.552,24.554,39,24,39z"/>
	<path d="M20,33c-0.553,0-1-0.448-1-1v-3c0-0.552,0.447-1,1-1c0.554,0,1,0.448,1,1v3C21,32.552,20.554,33,20,33z"/>
	<path d="M16,38c-0.553,0-1-0.448-1-1v-2c0-0.552,0.447-1,1-1c0.554,0,1,0.448,1,1v2C17,37.552,16.554,38,16,38z"/>
</g>
</svg>
