<?xml version="1.0" encoding="utf-8"?>
<!-- Generator: Adobe Illustrator 15.0.0, SVG Export Plug-In . SVG Version: 6.00 Build 0)  -->
<!DOCTYPE svg PUBLIC "-//W3C//DTD SVG 1.1//EN" "http://www.w3.org/Graphics/SVG/1.1/DTD/svg11.dtd">
<svg version="1.1" id="Layer_1" xmlns="http://www.w3.org/2000/svg" xmlns:xlink="http://www.w3.org/1999/xlink" x="0px" y="0px"
	 width="40px" height="48px" viewBox="0 0 40 48" enable-background="new 0 0 40 48" xml:space="preserve">
<g>
	<path d="M20,48C8.785,48,0,36.141,0,21C0,9.028,8.598,0,20,0c11.402,0,20,9.028,20,21C40,36.141,31.215,48,20,48z M20,2
		C9.738,2,2,10.168,2,21c0,14.02,7.907,25,18,25s18-10.98,18-25C38,10.168,30.262,2,20,2z"/>
	<path d="M12,25c-2.757,0-5-2.243-5-5s2.243-5,5-5s5,2.243,5,5S14.757,25,12,25z M12,17c-1.654,0-3,1.346-3,3s1.346,3,3,3
		s3-1.346,3-3S13.654,17,12,17z"/>
	<path d="M28,25c-2.757,0-5-2.243-5-5s2.243-5,5-5s5,2.243,5,5S30.757,25,28,25z M28,17c-1.654,0-3,1.346-3,3s1.346,3,3,3
		s3-1.346,3-3S29.654,17,28,17z"/>
	<path d="M23,29c-0.552,0-1-0.448-1-1c0-0.408-0.779-1-2-1c-1.221,0-2,0.592-2,1c0,0.552-0.448,1-1,1s-1-0.448-1-1
		c0-1.682,1.757-3,4-3s4,1.318,4,3C24,28.552,23.552,29,23,29z"/>
	<path d="M20,31c-0.26,0-0.52-0.109-0.71-0.29C19.11,30.52,19,30.26,19,30s0.11-0.52,0.29-0.71c0.37-0.37,1.05-0.37,1.42,0
		C20.891,29.48,21,29.74,21,30s-0.109,0.52-0.29,0.71C20.52,30.891,20.26,31,20,31z"/>
	<path d="M18,13c-0.26,0-0.52-0.11-0.71-0.29C17.11,12.52,17,12.26,17,12c0-0.27,0.11-0.52,0.29-0.71c0.37-0.36,1.05-0.37,1.42,0
		C18.89,11.48,19,11.74,19,12s-0.11,0.52-0.29,0.71C18.52,12.89,18.26,13,18,13z"/>
	<path d="M14,13c-0.26,0-0.52-0.11-0.71-0.29C13.11,12.52,13,12.26,13,12s0.11-0.52,0.29-0.71c0.37-0.37,1.04-0.37,1.42,0
		C14.89,11.48,15,11.74,15,12s-0.1,0.52-0.29,0.71C14.52,12.89,14.26,13,14,13z"/>
	<path d="M14,9c-0.26,0-0.52-0.11-0.71-0.29C13.11,8.52,13,8.26,13,8s0.11-0.52,0.29-0.71c0.37-0.37,1.04-0.37,1.42,0
		C14.9,7.48,15,7.74,15,8s-0.1,0.52-0.29,0.71C14.52,8.89,14.26,9,14,9z"/>
	<path d="M22,13c-0.27,0-0.52-0.11-0.71-0.29C21.109,12.52,21,12.26,21,12s0.109-0.52,0.29-0.71c0.37-0.37,1.05-0.37,1.42,0
		C22.891,11.48,23,11.74,23,12s-0.109,0.52-0.29,0.71C22.52,12.89,22.27,13,22,13z"/>
	<path d="M26,13c-0.26,0-0.52-0.11-0.71-0.29C25.109,12.52,25,12.26,25,12s0.109-0.52,0.29-0.71c0.38-0.37,1.05-0.37,1.42,0
		C26.891,11.48,27,11.74,27,12s-0.109,0.52-0.29,0.71C26.52,12.89,26.26,13,26,13z"/>
	<path d="M26,9c-0.26,0-0.52-0.11-0.71-0.29C25.109,8.52,25,8.26,25,8s0.109-0.52,0.29-0.71c0.38-0.37,1.04-0.37,1.42,0
		C26.891,7.48,27,7.74,27,8s-0.109,0.52-0.29,0.71C26.52,8.89,26.26,9,26,9z"/>
	<path d="M16,35c-0.26,0-0.52-0.109-0.71-0.29C15.11,34.52,15,34.26,15,34s0.11-0.52,0.29-0.71c0.38-0.37,1.05-0.37,1.42,0
		C16.89,33.48,17,33.74,17,34c0,0.27-0.11,0.52-0.29,0.71C16.52,34.891,16.27,35,16,35z"/>
	<path d="M12,37c-0.26,0-0.52-0.109-0.71-0.29C11.11,36.52,11,36.26,11,36s0.11-0.52,0.29-0.71c0.38-0.37,1.05-0.37,1.42,0
		C12.89,35.48,13,35.74,13,36s-0.11,0.52-0.29,0.71C12.52,36.891,12.27,37,12,37z"/>
	<path d="M24,35c-0.27,0-0.52-0.109-0.71-0.29C23.109,34.52,23,34.26,23,34c0-0.27,0.109-0.52,0.29-0.71c0.37-0.36,1.05-0.37,1.42,0
		C24.891,33.48,25,33.73,25,34c0,0.26-0.109,0.52-0.29,0.71C24.52,34.891,24.27,35,24,35z"/>
	<path d="M28,37c-0.26,0-0.52-0.109-0.71-0.29C27.109,36.52,27,36.26,27,36s0.109-0.52,0.29-0.71c0.37-0.37,1.04-0.37,1.42,0
		C28.891,35.48,29,35.74,29,36s-0.109,0.52-0.29,0.71C28.52,36.891,28.26,37,28,37z"/>
	<path d="M16,39c-0.26,0-0.52-0.109-0.71-0.29C15.11,38.52,15,38.26,15,38s0.11-0.52,0.29-0.71c0.38-0.37,1.05-0.37,1.42,0
		C16.89,37.48,17,37.74,17,38c0,0.27-0.11,0.52-0.29,0.71C16.52,38.891,16.27,39,16,39z"/>
	<path d="M24,39c-0.27,0-0.52-0.109-0.71-0.29C23.109,38.52,23,38.27,23,38s0.109-0.52,0.29-0.71c0.36-0.37,1.05-0.37,1.42,0
		C24.891,37.48,25,37.73,25,38s-0.109,0.52-0.29,0.71C24.52,38.891,24.27,39,24,39z"/>
	<path d="M16,43c-0.26,0-0.52-0.109-0.71-0.29C15.11,42.52,15,42.26,15,42s0.11-0.52,0.29-0.71c0.38-0.37,1.05-0.37,1.42,0
		C16.89,41.48,17,41.74,17,42c0,0.27-0.11,0.52-0.29,0.71C16.52,42.891,16.27,43,16,43z"/>
	<path d="M24,43c-0.27,0-0.52-0.109-0.71-0.29C23.109,42.52,23,42.27,23,42s0.109-0.52,0.29-0.71c0.36-0.37,1.05-0.37,1.42,0
		C24.891,41.48,25,41.73,25,42s-0.109,0.52-0.29,0.71C24.52,42.891,24.27,43,24,43z"/>
</g>
</svg>
