<?xml version="1.0" encoding="utf-8"?>
<!-- Generator: Adobe Illustrator 15.0.0, SVG Export Plug-In . SVG Version: 6.00 Build 0)  -->
<!DOCTYPE svg PUBLIC "-//W3C//DTD SVG 1.1//EN" "http://www.w3.org/Graphics/SVG/1.1/DTD/svg11.dtd">
<svg version="1.1" id="Layer_1" xmlns="http://www.w3.org/2000/svg" xmlns:xlink="http://www.w3.org/1999/xlink" x="0px" y="0px"
	 width="40px" height="48px" viewBox="0 0 40 48" enable-background="new 0 0 40 48" xml:space="preserve">
<g>
	<path d="M20,48c-7.374,0-9.118-7.898-10.391-13.667C8.953,31.365,8.21,28,7,28c-3.86,0-7-3.141-7-7C0,9.028,8.598,0,20,0
		c11.402,0,20,9.028,20,21c0,3.859-3.141,7-7,7c-1.21,0-1.953,3.365-2.607,6.333C29.118,40.102,27.374,48,20,48z M20,2
		C9.738,2,2,10.168,2,21c0,2.757,2.243,5,5,5c2.816,0,3.625,3.662,4.563,7.902C12.814,39.573,14.232,46,20,46
		s7.188-6.427,8.438-12.098C29.375,29.662,30.184,26,33,26c2.757,0,5-2.243,5-5C38,10.168,30.262,2,20,2z"/>
	<path d="M18,24c-0.553,0-1-0.448-1-1v-1c0-0.552,0.447-1,1-1s1,0.448,1,1v1C19,23.552,18.553,24,18,24z"/>
	<path d="M22,24c-0.553,0-1-0.448-1-1v-1c0-0.552,0.447-1,1-1s1,0.448,1,1v1C23,23.552,22.553,24,22,24z"/>
	<path d="M20,44c-3.814,0-6-9.432-6-12c0-3.309,2.691-6,6-6s6,2.691,6,6C26,34.568,23.814,44,20,44z M20,28c-2.206,0-4,1.794-4,4
		c0,2.979,2.367,10,4,10s4-7.021,4-10C24,29.794,22.206,28,20,28z"/>
	<path d="M10,24c-2.542,0-4-1.458-4-4c0-1.793,1.166-2.514,2.294-3.211c0.618-0.381,1.317-0.814,1.999-1.496
		c0.717-0.717,1.146-1.609,1.561-2.472C12.488,11.499,13.209,10,15,10c2.542,0,4,1.458,4,4C19,17.444,13.62,24,10,24z M15,12
		c-0.46,0-0.727,0.401-1.344,1.688c-0.441,0.918-0.99,2.062-1.949,3.02c-0.846,0.846-1.688,1.366-2.362,1.783
		C8.238,19.175,8,19.38,8,20c0,1.439,0.561,2,2,2c2.29,0,7-5.383,7-8C17,12.561,16.439,12,15,12z"/>
	<path d="M30,24c-3.62,0-9-6.556-9-10c0-2.542,1.458-4,4-4c1.791,0,2.512,1.499,3.146,2.821c0.414,0.862,0.844,1.754,1.561,2.472
		c0.682,0.682,1.382,1.114,1.999,1.496C32.834,17.486,34,18.207,34,20C34,22.542,32.542,24,30,24z M25,12c-1.439,0-2,0.561-2,2
		c0,2.617,4.71,8,7,8c1.439,0,2-0.561,2-2c0-0.62-0.236-0.825-1.346-1.51c-0.676-0.417-1.516-0.938-2.361-1.783
		c-0.958-0.958-1.508-2.101-1.949-3.02C25.727,12.401,25.46,12,25,12z"/>
</g>
</svg>
