<?xml version="1.0" encoding="utf-8"?>
<!-- Generator: Adobe Illustrator 15.0.0, SVG Export Plug-In . SVG Version: 6.00 Build 0)  -->
<!DOCTYPE svg PUBLIC "-//W3C//DTD SVG 1.1//EN" "http://www.w3.org/Graphics/SVG/1.1/DTD/svg11.dtd">
<svg version="1.1" id="Layer_1" xmlns="http://www.w3.org/2000/svg" xmlns:xlink="http://www.w3.org/1999/xlink" x="0px" y="0px"
	 width="42px" height="48px" viewBox="0 0 42 48" enable-background="new 0 0 42 48" xml:space="preserve">
<g>
	<path d="M21,48c-5.215,0-9.339-1.486-12.258-4.418c-5.825-5.85-5.78-16.3-5.747-23.93L3,18c0-0.552,0.447-1,1-1s1,0.448,1,1
		c0,7.232,1.178,9,6,9c1.447,0,2.473-1.123,3.657-2.423C16.188,22.9,17.919,21,21,21s4.813,1.9,6.343,3.577
		C28.529,25.877,29.553,27,31,27c4.822,0,6-1.768,6-9c0-0.552,0.447-1,1-1s1,0.448,1,1l0.005,1.652
		c0.033,7.63,0.078,18.081-5.747,23.93C30.339,46.514,26.215,48,21,48z M5.126,27.076c0.331,5.654,1.438,11.484,5.033,15.095
		C12.725,44.748,16.271,46,21,46s8.275-1.252,10.841-3.829c3.595-3.61,4.702-9.44,5.033-15.095C35.688,28.296,33.848,29,31,29
		c-2.33,0-3.756-1.563-5.135-3.076C24.493,24.42,23.198,23,21,23s-3.493,1.42-4.865,2.924C14.756,27.438,13.33,29,11,29
		C8.152,29,6.313,28.296,5.126,27.076z"/>
	<path d="M17,19h-7c-0.553,0-1-0.448-1-1s0.447-1,1-1h7c0.553,0,1,0.448,1,1S17.553,19,17,19z"/>
	<path d="M15,21c-1.654,0-3-1.346-3-3c0-0.552,0.447-1,1-1s1,0.448,1,1c0,0.551,0.448,1,1,1s1-0.449,1-1c0-0.552,0.447-1,1-1
		s1,0.448,1,1C18,19.654,16.654,21,15,21z"/>
	<path d="M32,19h-7c-0.553,0-1-0.448-1-1s0.447-1,1-1h7c0.553,0,1,0.448,1,1S32.553,19,32,19z"/>
	<path d="M27,21c-1.654,0-3-1.346-3-3c0-0.552,0.447-1,1-1s1,0.448,1,1c0,0.551,0.448,1,1,1s1-0.449,1-1c0-0.552,0.447-1,1-1
		s1,0.448,1,1C30,19.654,28.654,21,27,21z"/>
	<path d="M22,27h-2c-0.553,0-1-0.448-1-1s0.447-1,1-1h2c0.553,0,1,0.448,1,1S22.553,27,22,27z"/>
	<path d="M21,37c-3.309,0-6-1.794-6-4s2.691-4,6-4s6,1.794,6,4S24.309,37,21,37z M21,31c-2.253,0-4,1.075-4,2s1.747,2,4,2
		s4-1.075,4-2S23.253,31,21,31z"/>
	<path d="M21,41c-0.26,0-0.521-0.109-0.71-0.29C20.1,40.52,20,40.26,20,40s0.109-0.52,0.29-0.71c0.37-0.37,1.05-0.37,1.42,0.01
		C21.891,39.48,22,39.74,22,40s-0.109,0.52-0.29,0.71C21.52,40.891,21.26,41,21,41z"/>
	<path d="M17,43c-0.271,0-0.521-0.109-0.71-0.29C16.109,42.52,16,42.26,16,42c0-0.27,0.109-0.52,0.29-0.71
		c0.37-0.37,1.05-0.37,1.42,0C17.891,41.48,18,41.73,18,42c0,0.26-0.109,0.52-0.29,0.71C17.52,42.891,17.27,43,17,43z"/>
	<path d="M25,43c-0.26,0-0.521-0.109-0.71-0.29C24.109,42.52,24,42.26,24,42s0.109-0.52,0.29-0.71c0.38-0.37,1.05-0.37,1.42,0
		C25.891,41.48,26,41.74,26,42s-0.109,0.52-0.3,0.71C25.52,42.891,25.27,43,25,43z"/>
	<path d="M4,19c-0.553,0-1-0.448-1-1C3,5.888,8.889,0,21,0c0.553,0,1,0.448,1,1s-0.447,1-1,1C9.936,2,5,6.935,5,18
		C5,18.552,4.553,19,4,19z"/>
	<path d="M38,19c-0.553,0-1-0.448-1-1C37,6.935,32.064,2,21,2c-0.553,0-1-0.448-1-1s0.447-1,1-1c12.111,0,18,5.888,18,18
		C39,18.552,38.553,19,38,19z"/>
	<path d="M38,19c-0.553,0-1-0.448-1-1c0-0.958-2.462-7.868-12.25-9.649C24.191,9.899,22.709,11,21,11s-3.191-1.101-3.75-2.649
		C7.462,10.132,5,17.042,5,18c0,0.552-0.447,1-1,1s-1-0.448-1-1C3,15.871,6.563,7.836,17.88,6.223
		c0.279-0.039,0.556,0.037,0.771,0.211c0.217,0.174,0.351,0.43,0.369,0.707C19.094,8.183,19.964,9,21,9s1.906-0.816,1.98-1.859
		c0.021-0.277,0.152-0.533,0.369-0.707c0.217-0.174,0.487-0.25,0.771-0.211C35.438,7.836,39,15.871,39,18C39,18.552,38.553,19,38,19
		z"/>
	<path d="M4,28c-3.307,0-4-5.982-4-11c0-0.552,0.447-1,1-1c1.369,0,4,1.267,4,3c0,0.552-0.447,1-1,1c-0.54,0-0.98-0.428-0.999-0.963
		c-0.086-0.202-0.513-0.507-0.981-0.734c0.147,4.789,1.098,7.698,1.98,7.698c0.553,0,1,0.448,1,1S4.553,28,4,28z"/>
	<path d="M38,28c-0.553,0-1-0.448-1-1s0.447-1,1-1c0.885,0,1.833-2.909,1.98-7.698c-0.48,0.232-0.916,0.547-0.987,0.749
		c0,0.552-0.444,0.975-0.996,0.975C37.443,20.026,37,19.552,37,19c0-1.733,2.631-3,4-3c0.553,0,1,0.448,1,1
		C42,22.018,41.307,28,38,28z"/>
</g>
</svg>
