<?xml version="1.0" encoding="utf-8"?>
<!-- Generator: Adobe Illustrator 15.0.0, SVG Export Plug-In . SVG Version: 6.00 Build 0)  -->
<!DOCTYPE svg PUBLIC "-//W3C//DTD SVG 1.1//EN" "http://www.w3.org/Graphics/SVG/1.1/DTD/svg11.dtd">
<svg version="1.1" id="Layer_1" xmlns="http://www.w3.org/2000/svg" xmlns:xlink="http://www.w3.org/1999/xlink" x="0px" y="0px"
	 width="48px" height="48px" viewBox="0 0 48 48" enable-background="new 0 0 48 48" xml:space="preserve">
<g>
	<path d="M29,44c-4.496,0-8.88-4.306-9.98-9.804c-0.068-0.35,0.054-0.71,0.318-0.946c0.268-0.236,0.643-0.312,0.979-0.199
		C23.163,34,27.105,34,29,34s5.838,0,8.684-0.949c0.338-0.112,0.711-0.037,0.98,0.199c0.266,0.236,0.389,0.597,0.316,0.946
		C37.881,39.694,33.498,44,29,44z M21.426,35.412C22.759,39.164,25.91,42,29,42s6.242-2.836,7.574-6.588C33.766,36,30.648,36,29,36
		S24.235,36,21.426,35.412z"/>
	<path d="M22,29c-2.206,0-4-1.794-4-4s1.794-4,4-4s4,1.794,4,4S24.207,29,22,29z M22,23c-1.104,0-2,0.897-2,2c0,1.104,0.896,2,2,2
		s2-0.896,2-2C24,23.897,23.104,23,22,23z"/>
	<path d="M26,24c-0.256,0-0.512-0.098-0.707-0.293c-1.953-1.953-5.626-3.668-6.3-3.707c-0.197,0.072-0.768,0.792-1.1,1.449
		c-0.248,0.491-0.85,0.691-1.343,0.444c-0.491-0.248-0.692-0.848-0.444-1.341C16.405,19.954,17.5,18,19,18
		c1.41,0,5.634,2.22,7.707,4.293c0.391,0.392,0.391,1.023,0,1.414C26.512,23.902,26.256,24,26,24z"/>
	<path d="M36,29c-2.205,0-4-1.794-4-4s1.795-4,4-4c2.207,0,4,1.794,4,4S38.207,29,36,29z M36,23c-1.104,0-2,0.897-2,2
		c0,1.104,0.896,2,2,2s2-0.896,2-2C38,23.897,37.104,23,36,23z"/>
	<path d="M32,24c-0.256,0-0.512-0.098-0.707-0.293c-0.391-0.391-0.391-1.022,0-1.414C33.365,20.22,37.59,18,39,18
		c1.502,0,2.596,1.954,2.895,2.553c0.248,0.494,0.047,1.094-0.443,1.341c-0.494,0.247-1.098,0.047-1.344-0.444
		c-0.332-0.657-0.9-1.377-1.15-1.454c-0.621,0.043-4.295,1.759-6.248,3.712C32.512,23.902,32.256,24,32,24z"/>
	<path d="M32,32c-0.256,0-0.512-0.098-0.707-0.292c-0.727-0.725-1.451-0.702-2.359-0.708c-0.887,0-1.535,0.018-2.227,0.708
		c-0.391,0.391-1.023,0.391-1.414,0c-0.391-0.39-0.391-1.023,0-1.415c1.297-1.294,2.627-1.288,3.709-1.292
		c1.076,0,2.414,0.001,3.705,1.292c0.391,0.392,0.391,1.024,0,1.415C32.512,31.902,32.256,32,32,32z"/>
	<path d="M11,23c-0.212,0-0.424-0.067-0.6-0.2l-4-3c-0.232-0.174-0.377-0.439-0.397-0.729s0.085-0.573,0.29-0.778l12-12
		c0.391-0.391,1.023-0.391,1.414,0l4,4c0.391,0.392,0.391,1.023,0,1.414c-0.652,0.652-1.902,1.482-3.484,2.533
		C17.149,16.282,12,19.699,12,22c0,0.379-0.214,0.726-0.553,0.896C11.307,22.965,11.153,23,11,23z M8.522,18.893l1.879,1.408
		c1.271-2.785,5.338-5.483,8.716-7.727c0.899-0.597,1.767-1.173,2.399-1.643L19,8.414L8.522,18.893z"/>
	<path d="M29,48c-3.102,0-7.642-0.106-11.248-1.031c-4.387-1.125-5.863-4.322-6.732-8.776c-0.84-4.3-0.998-12.614-1.02-17.188
		c-0.002-0.552,0.443-1.002,0.995-1.004c0.002,0,0.004,0,0.005,0c0.551,0,0.997,0.445,1,0.996c0.016,3.625,0.145,12.521,0.98,16.813
		c0.892,4.563,2.27,6.454,5.268,7.223C22.028,46,27.275,46,29,46c2.645,0,7.07,0,10.553-0.892c3.023-0.775,4.689-3.027,5.566-7.531
		C46,33.058,46,23.068,46,19.308c0-3.167-3.074-5.875-4.725-6.438C38.732,12,31.408,12,29,12h-6c-0.553,0-1-0.448-1-1s0.447-1,1-1h6
		c4.688,0,10.391,0.111,12.924,0.978C43.977,11.679,48,14.943,48,19.309c0,3.813,0,13.942-0.918,18.652
		c-1.035,5.301-3.203,8.104-7.033,9.085C36.324,48,31.738,48,29,48z"/>
	<path d="M6,21c-0.256,0-0.512-0.098-0.707-0.293l-5-5c-0.391-0.389-0.391-1.02-0.004-1.411l13.865-14
		c0.389-0.39,1.016-0.396,1.408-0.013l5.135,5C20.889,5.47,20.999,5.726,21,5.992c0.002,0.268-0.104,0.525-0.293,0.714l-14,14
		C6.512,20.902,6.256,21,6,21z M2.412,14.997L6,18.586L18.577,6.009l-3.698-3.601L2.412,14.997z"/>
</g>
</svg>
