<?xml version="1.0" encoding="utf-8"?>
<!-- Generator: Adobe Illustrator 15.0.0, SVG Export Plug-In . SVG Version: 6.00 Build 0)  -->
<!DOCTYPE svg PUBLIC "-//W3C//DTD SVG 1.1//EN" "http://www.w3.org/Graphics/SVG/1.1/DTD/svg11.dtd">
<svg version="1.1" id="Layer_1" xmlns="http://www.w3.org/2000/svg" xmlns:xlink="http://www.w3.org/1999/xlink" x="0px" y="0px"
	 width="42px" height="48px" viewBox="0 0 42 48" enable-background="new 0 0 42 48" xml:space="preserve">
<g>
	<path d="M21,38C9.421,38,0,28.58,0,17C0,9.873,5.213,0,15,0c3.168,0,5.023,1.293,6,2.327C21.977,1.294,23.832,0,27,0
		c9.787,0,15,9.873,15,17C42,28.58,32.579,38,21,38z M15,2C6.518,2,2,10.711,2,17c0,10.477,8.523,19,19,19s19-8.523,19-19
		c0-6.289-4.518-15-13-15c-3.773,0-4.98,2.197-5.105,2.447c-0.34,0.678-1.449,0.678-1.789,0C19.98,4.197,18.773,2,15,2z"/>
	<path d="M21,38c-4.785,0-8.419-3.557-9.971-9.757C10.046,24.307,9,18.328,9,15C9,8.383,14.383,3,21,3s12,5.383,12,12
		c0,3.328-1.046,9.307-2.029,13.243C29.419,34.443,25.785,38,21,38z M21,5c-5.514,0-10,4.486-10,10
		c0,3.167,1.016,8.937,1.971,12.757C13.742,30.836,15.807,36,21,36s7.26-5.164,8.029-8.243C29.984,23.937,31,18.167,31,15
		C31,9.486,26.514,5,21,5z"/>
	<path d="M15,16c-0.256,0-0.512-0.098-0.707-0.293c-0.391-0.391-0.391-1.023,0-1.414c1.33-1.332,3.893-2.523,5.414-1
		c0.391,0.391,0.391,1.023,0,1.414s-1.023,0.391-1.414,0c-0.229-0.226-0.758-0.081-0.977-0.008c-0.549,0.183-1.18,0.578-1.609,1.008
		C15.512,15.902,15.256,16,15,16z"/>
	<path d="M18.029,18c-0.553,0-1.004-0.448-1.004-1s0.44-1,0.994-1h0.01c0.553,0,1,0.448,1,1S18.582,18,18.029,18z"/>
	<path d="M27,16c-0.256,0-0.512-0.098-0.707-0.293c-0.432-0.43-1.063-0.826-1.609-1.008c-0.217-0.072-0.748-0.218-0.977,0.008
		c-0.391,0.391-1.023,0.391-1.414,0s-0.391-1.023,0-1.414c1.521-1.523,4.083-0.332,5.414,1c0.391,0.391,0.391,1.023,0,1.414
		C27.512,15.902,27.256,16,27,16z"/>
	<path d="M24.029,18c-0.553,0-1.004-0.448-1.004-1s0.44-1,0.994-1h0.01c0.553,0,1,0.448,1,1S24.582,18,24.029,18z"/>
	<path d="M21,27c-2.206,0-4-1.794-4-4s1.794-4,4-4s4,1.794,4,4S23.206,27,21,27z M21,21c-1.104,0-2,0.897-2,2s0.896,2,2,2
		s2-0.897,2-2S22.104,21,21,21z"/>
	<path d="M25,30h-8c-0.553,0-1-0.448-1-1s0.447-1,1-1h8c0.553,0,1,0.448,1,1S25.553,30,25,30z"/>
	<path d="M21,34c-1.879,0-2.555-1.912-3.002-3.176c-0.1-0.282-0.242-0.686-0.348-0.887C17.27,29.796,17,29.43,17,29
		c0-0.552,0.447-1,1-1c1.121,0,1.525,1.146,1.884,2.157C20.145,30.891,20.535,32,21,32s0.855-1.109,1.116-1.843
		C22.473,29.146,22.879,28,24,28c0.553,0,1,0.448,1,1c0,0.43-0.271,0.796-0.65,0.938c-0.104,0.201-0.248,0.604-0.348,0.887
		C23.555,32.088,22.879,34,21,34z"/>
	<path d="M21,43c-6.92,0-15-1.311-15-5c0-1.781,1.923-3.236,5.563-4.209c0.24-0.064,0.496-0.036,0.72,0.078
		C15.012,35.283,17.945,36,21.002,36s5.989-0.717,8.721-2.131c0.223-0.114,0.479-0.143,0.719-0.078
		c3.64,0.973,5.563,2.429,5.563,4.209C36,41.689,27.92,43,21,43z M11.714,35.824C8.997,36.605,8,37.543,8,38c0,1.077,4.344,3,13,3
		s13-1.923,13-3c0-0.457-0.997-1.395-3.714-2.176C27.37,37.268,24.248,38,21,38S14.63,37.268,11.714,35.824z"/>
	<path d="M21.514,48c-0.145,0-0.283,0-0.416,0C3.971,48,2,45.146,2,43c0-4.895,2.919-7.044,7.629-8.929
		c0.508-0.204,1.096,0.044,1.301,0.557c0.204,0.513-0.046,1.095-0.559,1.3C5.548,37.857,4,39.576,4,43c0,1.114,3.58,3,17,3h0.105
		c8.563,0.035,15.068-0.946,16.633-2.503C38,43.236,38,43.064,38,43c0-3.424-1.548-5.143-6.371-7.071
		c-0.513-0.206-0.763-0.786-0.559-1.3c0.205-0.513,0.793-0.761,1.301-0.557C37.081,35.956,40,38.107,40,43.001
		c0,0.699-0.294,1.36-0.852,1.915C36.382,47.671,26.207,48,21.514,48z"/>
	<path d="M21.001,48c-0.34,0-0.671-0.173-0.858-0.484l-2.461-4.102l-5.127,3.418c-0.229,0.15-0.508,0.204-0.772,0.145
		c-0.269-0.061-0.497-0.228-0.64-0.461l-2.483-4.144l-4.144,2.485c-0.476,0.283-1.089,0.129-1.373-0.344
		c-0.283-0.474-0.131-1.088,0.344-1.371l5-3c0.475-0.285,1.089-0.131,1.371,0.342l2.461,4.102l5.127-3.418
		c0.229-0.152,0.507-0.205,0.775-0.145c0.266,0.061,0.496,0.228,0.637,0.461l3,5c0.285,0.475,0.131,1.089-0.342,1.373
		C21.354,47.954,21.176,48,21.001,48z"/>
	<path d="M20.999,48c-0.175,0-0.353-0.046-0.515-0.143c-0.475-0.284-0.627-0.898-0.342-1.373l3-5c0.141-0.233,0.371-0.4,0.637-0.461
		c0.269-0.061,0.547-0.008,0.775,0.145l5.127,3.418l2.461-4.102c0.282-0.473,0.896-0.627,1.371-0.342l5,3
		c0.475,0.283,0.627,0.897,0.344,1.371c-0.285,0.473-0.898,0.627-1.373,0.344l-4.144-2.485l-2.483,4.144
		c-0.143,0.233-0.371,0.4-0.64,0.461s-0.547,0.008-0.772-0.145l-5.127-3.418l-2.461,4.102C21.67,47.827,21.339,48,20.999,48z"/>
</g>
</svg>
