<?xml version="1.0" encoding="utf-8"?>
<!-- Generator: Adobe Illustrator 15.0.0, SVG Export Plug-In . SVG Version: 6.00 Build 0)  -->
<!DOCTYPE svg PUBLIC "-//W3C//DTD SVG 1.1//EN" "http://www.w3.org/Graphics/SVG/1.1/DTD/svg11.dtd">
<svg version="1.1" id="Layer_1" xmlns="http://www.w3.org/2000/svg" xmlns:xlink="http://www.w3.org/1999/xlink" x="0px" y="0px"
	 width="48px" height="48px" viewBox="0 0 48 48" enable-background="new 0 0 48 48" xml:space="preserve">
<g>
	<path d="M47,38H30c-0.553,0-1-0.448-1-1s0.447-1,1-1h16V2H2v34h10c0.552,0,1,0.448,1,1s-0.448,1-1,1H1c-0.552,0-1-0.448-1-1V1
		c0-0.552,0.448-1,1-1h46c0.553,0,1,0.448,1,1v36C48,37.552,47.553,38,47,38z"/>
	<path d="M37,34h-8c-0.553,0-1-0.448-1-1s0.447-1,1-1h7V6H6v26h7c0.552,0,1,0.448,1,1s-0.448,1-1,1H5c-0.552,0-1-0.448-1-1V5
		c0-0.552,0.448-1,1-1h32c0.553,0,1,0.448,1,1v28C38,33.552,37.553,34,37,34z"/>
	<circle cx="42" cy="8" r="2"/>
	<circle cx="42" cy="14" r="2"/>
	<path d="M43,34h-2c-0.553,0-1-0.448-1-1V20c0-0.552,0.447-1,1-1h2c0.553,0,1,0.448,1,1v13C44,33.552,43.553,34,43,34z"/>
	<path d="M21,32c-4.188,0-8.275-2.02-8.447-2.105c-0.256-0.127-0.446-0.36-0.519-0.638c-0.074-0.276-0.025-0.573,0.134-0.812
		c1.274-1.911,1.148-4.437,0.974-7.931C13.076,19.174,13,17.654,13,16c0-3.729,3.271-7,7-7c3.859,0,7,3.14,7,7
		c0,0.312-0.021,0.788-0.052,1.381c-0.144,2.896-0.478,9.676,1.759,11.912c0.245,0.245,0.346,0.6,0.268,0.938
		c-0.08,0.336-0.328,0.608-0.658,0.719C28.188,30.992,25.115,32,21,32z M14.405,28.527C15.774,29.085,18.412,30,21,30
		c2.23,0,4.141-0.325,5.34-0.594c-1.822-3.338-1.535-9.136-1.39-12.123C24.979,16.731,25,16.29,25,16c0-2.757-2.243-5-5-5
		c-2.862,0-5,2.64-5,5c0,1.604,0.074,3.098,0.14,4.415C15.3,23.641,15.432,26.281,14.405,28.527z"/>
	<path d="M28,31c-0.117,0-0.234-0.021-0.352-0.064c-0.519-0.193-0.778-0.771-0.586-1.287l2.723-7.257l-1.658-1.105l-1.42,1.42
		c-0.391,0.391-1.023,0.391-1.414,0s-0.391-1.023,0-1.414l2-2c0.338-0.338,0.865-0.39,1.262-0.125l3,2
		c0.387,0.258,0.545,0.748,0.383,1.183l-3,8C28.786,30.752,28.404,31,28,31z"/>
	<path d="M13,31c-0.405,0-0.786-0.248-0.937-0.648l-3-8c-0.163-0.435-0.005-0.925,0.382-1.183l3-2
		c0.239-0.159,0.535-0.207,0.812-0.134c0.277,0.073,0.509,0.263,0.638,0.519l1,2c0.247,0.494,0.047,1.095-0.447,1.342
		c-0.495,0.247-1.095,0.047-1.342-0.447l-0.493-0.987l-1.397,0.932l2.722,7.257c0.194,0.517-0.068,1.093-0.585,1.287
		C13.235,30.979,13.117,31,13,31z"/>
	<path d="M22,48c-3.297,0-8.5-2.086-10.707-4.293c-0.268-0.268-0.361-0.664-0.242-1.023C11.484,41.385,12,38.131,12,30
		c0-0.552,0.448-1,1-1s1,0.448,1,1c0,6.121-0.292,10.378-0.867,12.677C15.175,44.355,19.479,46,22,46
		c2.508,0,6.402-1.505,7.838-2.376C28.788,40.005,27,31.105,27,30c0-0.552,0.447-1,1-1s1,0.448,1,1
		c0.02,0.961,1.971,10.748,2.948,13.684c0.12,0.359,0.026,0.756-0.241,1.023C30.498,45.917,25.245,48,22,48z"/>
	<path d="M31,23c-0.124,0-0.25-0.023-0.371-0.072c-0.513-0.206-0.763-0.787-0.559-1.3l1.756-4.388l-0.553-0.553l-0.379,0.759
		C30.721,17.797,30.366,18,30,18c0,0.153-0.035,0.307-0.105,0.447l-1,2c-0.248,0.494-0.847,0.693-1.342,0.447
		c-0.494-0.247-0.693-0.848-0.447-1.342L27.882,18l-0.776-1.553c-0.19-0.385-0.117-0.85,0.188-1.154
		c0.306-0.305,0.771-0.378,1.154-0.188l1.104,0.553l0.554-1.105c0.145-0.288,0.418-0.488,0.733-0.54
		c0.321-0.05,0.642,0.054,0.867,0.28l2,2c0.282,0.283,0.37,0.707,0.224,1.079l-2,5C31.771,22.762,31.396,23,31,23z"/>
	<path d="M10,23c-0.397,0-0.772-0.238-0.929-0.629l-2-5c-0.148-0.372-0.061-0.796,0.222-1.079l2-2
		c0.227-0.228,0.549-0.331,0.867-0.28c0.317,0.052,0.59,0.252,0.734,0.54l0.553,1.105l1.105-0.553
		c0.386-0.192,0.851-0.116,1.154,0.188c0.304,0.304,0.38,0.769,0.188,1.154L13.118,18l0.776,1.553
		c0.247,0.494,0.047,1.095-0.447,1.342c-0.495,0.248-1.095,0.046-1.342-0.447l-1-2C11.035,18.307,11,18.153,11,18
		c-0.367,0-0.719-0.203-0.895-0.553l-0.379-0.759l-0.553,0.553l1.755,4.388c0.205,0.513-0.044,1.095-0.557,1.3
		C10.25,22.977,10.124,23,10,23z"/>
	<path d="M14,48c-1.375,0-2.575-1.161-2.707-1.293C11.105,46.52,11,46.266,11,46c0-0.145,0.036-1.451,1.293-2.707
		c0.391-0.391,1.023-0.391,1.414,0s0.391,1.023,0,1.414c-0.337,0.337-0.514,0.664-0.606,0.907C13.393,45.818,13.744,46,14,46
		c0.92,0,1.586,0,2.293-0.707c0.391-0.391,1.023-0.391,1.414,0c0.391,0.391,0.391,1.023,0,1.414C16.414,48,15.076,48,14,48z"/>
	<path d="M30,48c-1.075,0-2.414,0-3.707-1.293c-0.391-0.391-0.391-1.023,0-1.414s1.023-0.391,1.414,0C28.414,46,29.079,46,30,46
		c0.256,0,0.607-0.182,0.9-0.387c-0.092-0.24-0.271-0.567-0.607-0.906c-0.391-0.391-0.391-1.023,0-1.414s1.023-0.391,1.414,0
		C32.964,44.549,33,45.855,33,46c0,0.266-0.105,0.52-0.293,0.707C32.575,46.839,31.375,48,30,48z"/>
</g>
</svg>
