<?xml version="1.0" encoding="utf-8"?>
<!-- Generator: Adobe Illustrator 15.0.0, SVG Export Plug-In . SVG Version: 6.00 Build 0)  -->
<!DOCTYPE svg PUBLIC "-//W3C//DTD SVG 1.1//EN" "http://www.w3.org/Graphics/SVG/1.1/DTD/svg11.dtd">
<svg version="1.1" id="Layer_1" xmlns="http://www.w3.org/2000/svg" xmlns:xlink="http://www.w3.org/1999/xlink" x="0px" y="0px"
	 width="48px" height="48px" viewBox="0 0 48 48" enable-background="new 0 0 48 48" xml:space="preserve">
<g>
	<path d="M47,33H31c-0.553,0-1-0.448-1-1s0.447-1,1-1h15V2H2v29h11c0.553,0,1,0.448,1,1s-0.447,1-1,1H1c-0.553,0-1-0.448-1-1V1
		c0-0.552,0.447-1,1-1h46c0.553,0,1,0.448,1,1v31C48,32.552,47.553,33,47,33z"/>
	<path d="M12,41H4c-0.553,0-1-0.448-1-1v-8c0-0.552,0.447-1,1-1s1,0.448,1,1v7h7c0.553,0,1,0.448,1,1S12.553,41,12,41z"/>
	<path d="M44,41H31c-0.553,0-1-0.448-1-1s0.447-1,1-1h12v-7c0-0.552,0.447-1,1-1s1,0.448,1,1v8C45,40.552,44.553,41,44,41z"/>
	<path d="M31.964,44.986c-0.241,0-0.481-0.092-0.671-0.279C29.396,42.813,29,29.682,29,19c0-2.757-2.243-5-5-5c-2.861,0-5,2.64-5,5
		c0,1.782,0.186,4.449,0.381,7.273c0.605,8.728,0.921,15.076-0.549,17.281c-0.307,0.459-0.926,0.584-1.387,0.277
		s-0.584-0.927-0.277-1.387c1.205-1.809,0.611-10.369,0.218-16.034C17.188,23.552,17,20.851,17,19c0-3.729,3.271-7,7-7
		c3.859,0,7,3.14,7,7c0,13.133,0.704,23.125,1.712,24.298c0.351,0.408,0.339,1.044-0.055,1.41
		C32.458,44.893,32.21,44.986,31.964,44.986z"/>
	<path d="M30,20c-0.124,0-0.249-0.023-0.371-0.072c-0.513-0.205-0.762-0.786-0.559-1.299c0.019-0.043,1.58-4.006,1.881-8.269
		c-1.206,0.64-2.928,2.032-4.244,3.347c-0.391,0.391-1.023,0.391-1.414,0s-0.391-1.023,0-1.414C26.01,11.576,29.702,8,32,8
		c0.553,0,1,0.448,1,1c0,5.134-1.986,10.16-2.07,10.372C30.771,19.762,30.396,20,30,20z"/>
	<path d="M22.999,43c-0.533,0-0.978-0.422-0.998-0.96l-1-25c-0.022-0.552,0.407-1.017,0.959-1.039
		c0.532-0.021,1.017,0.407,1.039,0.959l1,25c0.022,0.552-0.407,1.017-0.959,1.039C23.025,43,23.014,43,22.999,43z"/>
	<path d="M26.999,42c-0.533,0-0.976-0.421-0.998-0.958l-1-24c-0.022-0.552,0.405-1.018,0.957-1.041
		c0.563-0.008,1.019,0.405,1.041,0.958l1,24c0.022,0.552-0.405,1.018-0.957,1.041C27.027,42,27.014,42,26.999,42z"/>
	<path d="M43,29H31c-0.553,0-1-0.448-1-1s0.447-1,1-1h11V6H6v21h8c0.553,0,1,0.448,1,1s-0.447,1-1,1H5c-0.553,0-1-0.448-1-1V5
		c0-0.552,0.447-1,1-1h38c0.553,0,1,0.448,1,1v23C44,28.552,43.553,29,43,29z"/>
	<path d="M18,29c-0.104,0-0.211-0.018-0.316-0.052c-0.33-0.11-3.257-1.107-4.391-2.242c-0.268-0.269-0.361-0.664-0.241-1.022
		c1.039-3.119,4.021-7.116,4.148-7.285c0.329-0.441,0.956-0.533,1.399-0.2c0.44,0.331,0.529,0.958,0.198,1.4
		c-0.024,0.036-2.493,3.344-3.606,6.062c0.838,0.528,2.26,1.101,3.125,1.389c0.521,0.175,0.807,0.741,0.632,1.265
		C18.809,28.734,18.419,29,18,29z"/>
	<path d="M17,48H8c-0.49,0-0.908-0.355-0.986-0.84s0.205-0.954,0.67-1.109c0.938-0.313,2.527-0.958,3.319-1.52
		c0.099-8.893,2.927-17.48,3.05-17.848c0.174-0.523,0.736-0.808,1.264-0.633c0.523,0.176,0.809,0.741,0.635,1.266
		c-0.031,0.089-2.95,8.959-2.95,17.684c0,0.266-0.104,0.52-0.293,0.707c-0.101,0.1-0.211,0.197-0.334,0.293h3.009l-0.275-0.553
		C15.036,45.309,15,45.155,15,45c0-0.457,0.023-11.251,2.07-16.372c0.205-0.513,0.793-0.76,1.301-0.558
		c0.513,0.207,0.763,0.787,0.559,1.301c-1.75,4.375-1.912,13.793-1.928,15.396l0.893,1.785c0.155,0.311,0.141,0.678-0.043,0.973
		S17.348,48,17,48z"/>
	<path d="M4,41H1c-0.553,0-1-0.448-1-1s0.447-1,1-1h3c0.553,0,1,0.448,1,1S4.553,41,4,41z"/>
	<path d="M47,41h-3c-0.553,0-1-0.448-1-1s0.447-1,1-1h3c0.553,0,1,0.448,1,1S47.553,41,47,41z"/>
</g>
</svg>
